<?xml version="1.0" encoding="iso-8859-1"?>
<!-- Uploaded to: SVG Repo, www.svgrepo.com, Generator: SVG Repo Mixer Tools -->
<svg fill="#000000" height="800px" width="800px" version="1.1" id="Layer_1" xmlns="http://www.w3.org/2000/svg" xmlns:xlink="http://www.w3.org/1999/xlink" 
	 viewBox="0 0 512 512" xml:space="preserve">
<g>
	<g>
		<g>
			<path d="M417.91,247.467c-4.438-85.576-75.23-153.6-161.91-153.6c-89.543,0-162.133,72.591-162.133,162.133
				S166.457,418.133,256,418.133c86.68,0,157.472-68.024,161.91-153.6h0.223v-17.067H417.91z M400.81,247.467h-68.112
				c-1.306-55.551-15.316-104.011-36.812-130.978C353.984,133.068,397.183,184.958,400.81,247.467z M247.467,112.548v134.919
				h-51.089C198.125,178.203,220.939,122.569,247.467,112.548z M247.467,264.533v134.919
				c-26.528-10.021-49.342-65.655-51.089-134.919H247.467z M264.533,399.452V264.533h51.089
				C313.875,333.797,291.061,389.431,264.533,399.452z M264.533,247.467V112.548c26.528,10.021,49.342,65.655,51.089,134.919
				H264.533z M216.113,116.488c-21.495,26.967-35.506,75.427-36.812,130.978H111.19
				C114.817,184.958,158.016,133.068,216.113,116.488z M111.19,264.533h68.112c1.306,55.551,15.316,104.011,36.812,130.979
				C158.016,378.932,114.817,327.042,111.19,264.533z M295.887,395.512c21.495-26.967,35.506-75.427,36.812-130.979h68.112
				C397.183,327.042,353.984,378.932,295.887,395.512z"/>
			<path d="M256,0C114.839,0,0,114.839,0,256s114.839,256,256,256s256-114.839,256-256S397.161,0,256,0z M494.765,247.467h-25.616
				c-2.065-52.475-23.077-100.075-56.394-136.153l18.028-18.028C468.746,134.036,492.666,188.022,494.765,247.467z M111.314,412.754
				c36.078,33.317,83.678,54.329,136.153,56.394v25.616c-59.445-2.099-113.43-26.019-154.181-63.982L111.314,412.754z
				 M264.533,469.149c52.475-2.065,100.075-23.077,136.153-56.394l18.028,18.028c-40.751,37.963-94.736,61.883-154.181,63.982
				V469.149z M256,452.267c-108.396,0-196.267-87.87-196.267-196.267S147.604,59.733,256,59.733S452.267,147.604,452.267,256
				S364.397,452.267,256,452.267z M400.686,99.246c-36.078-33.317-83.678-54.329-136.153-56.394V17.235
				c59.445,2.099,113.43,26.019,154.181,63.982L400.686,99.246z M247.467,42.851c-52.475,2.065-100.075,23.077-136.153,56.394
				L93.285,81.218c40.751-37.963,94.736-61.883,154.181-63.982V42.851z M81.218,93.285l18.028,18.028
				c-33.317,36.078-54.329,83.678-56.394,136.153H17.235C19.334,188.022,43.254,134.036,81.218,93.285z M17.235,264.533h25.616
				c2.065,52.475,23.077,100.075,56.394,136.153l-18.028,18.028C43.254,377.964,19.334,323.978,17.235,264.533z M430.782,418.714
				l-18.028-18.028c33.317-36.078,54.329-83.678,56.394-136.153h25.616C492.666,323.978,468.746,377.964,430.782,418.714z"/>
		</g>
	</g>
</g>
</svg>